<svg width="40" height="40" viewBox="0 0 40 40" fill="none" xmlns="http://www.w3.org/2000/svg">
<rect width="40" height="40" rx="12" fill="#98BAFC"/>
<g clip-path="url(#clip0_1_182)">
<path d="M21.7253 12.5297C21.173 12.5297 20.7253 12.9774 20.7253 13.5297V31H25.1374V28.056C25.1374 27.8351 25.3164 27.656 25.5374 27.656H26.1879C26.4088 27.656 26.5879 27.8351 26.5879 28.056V31H31V13.5297C31 12.9774 30.5523 12.5297 30 12.5297H21.7253ZM28.663 23.444C28.663 23.6649 28.4839 23.844 28.263 23.844H23.4622C23.2413 23.844 23.0622 23.6649 23.0622 23.444V22.7934C23.0622 22.5725 23.2413 22.3934 23.4622 22.3934H28.263C28.4839 22.3934 28.663 22.5725 28.663 22.7934V23.444ZM28.663 19.9143C28.663 20.1352 28.4839 20.3143 28.263 20.3143H23.4622C23.2413 20.3143 23.0622 20.1352 23.0622 19.9143V19.2638C23.0622 19.0428 23.2413 18.8638 23.4622 18.8638H28.263C28.4839 18.8638 28.663 19.0428 28.663 19.2638V19.9143ZM28.663 16.3846C28.663 16.6056 28.4839 16.7846 28.263 16.7846H23.4622C23.2413 16.7846 23.0622 16.6056 23.0622 16.3846V15.7341C23.0622 15.5132 23.2413 15.3341 23.4622 15.3341H28.263C28.4839 15.3341 28.663 15.5132 28.663 15.7341V16.3846Z" fill="white"/>
<path d="M9 31H13.4121V28.056C13.4121 27.8351 13.5912 27.656 13.8121 27.656H14.4626C14.6836 27.656 14.8626 27.8351 14.8626 28.056V31H19.2747V10C19.2747 9.44772 18.827 9 18.2747 9H10C9.44772 9 9 9.44772 9 10V31ZM11.337 12.2044C11.337 11.9835 11.5161 11.8044 11.737 11.8044H16.5377C16.7587 11.8044 16.9377 11.9835 16.9377 12.2044V12.8549C16.9377 13.0759 16.7587 13.2549 16.5377 13.2549H11.737C11.5161 13.2549 11.337 13.0759 11.337 12.8549V12.2044ZM11.337 15.7341C11.337 15.5132 11.5161 15.3341 11.737 15.3341H16.5377C16.7587 15.3341 16.9377 15.5132 16.9377 15.7341V16.3846C16.9377 16.6055 16.7587 16.7846 16.5377 16.7846H11.737C11.5161 16.7846 11.337 16.6055 11.337 16.3846V15.7341ZM11.337 19.2637C11.337 19.0428 11.5161 18.8637 11.737 18.8637H16.5377C16.7587 18.8637 16.9377 19.0428 16.9377 19.2637V19.9143C16.9377 20.1352 16.7587 20.3143 16.5377 20.3143H11.737C11.5161 20.3143 11.337 20.1352 11.337 19.9143V19.2637ZM11.337 22.7934C11.337 22.5725 11.5161 22.3934 11.737 22.3934H16.5377C16.7587 22.3934 16.9377 22.5725 16.9377 22.7934V23.444C16.9377 23.6649 16.7587 23.844 16.5377 23.844H11.737C11.5161 23.844 11.337 23.6649 11.337 23.444V22.7934Z" fill="white"/>
</g>
<defs>
<clipPath id="clip0_1_182">
<rect width="22" height="22" fill="white" transform="translate(9 9)"/>
</clipPath>
</defs>
</svg>
